<svg xmlns="http://www.w3.org/2000/svg" xmlns:xlink="http://www.w3.org/1999/xlink" contentStyleType="text/css" data-diagram-type="CLASS" height="190px" preserveAspectRatio="none" style="width:346px;height:190px;background:#FFFFFF;" version="1.1" viewBox="0 0 346 190" width="346px" zoomAndPan="magnify"><defs/><g><!--class org.quurz.automata.BiOutputMapping.BiGoTo--><g class="entity" data-entity="org.quurz.automata.BiOutputMapping.BiGoTo" data-source-line="13" data-uid="ent0002" id="entity_org.quurz.automata.BiOutputMapping.BiGoTo"><a href="BiOutputMapping.BiGoTo.html" target="_top" title="BiOutputMapping.BiGoTo.html" xlink:actuate="onRequest" xlink:href="BiOutputMapping.BiGoTo.html" xlink:show="new" xlink:title="BiOutputMapping.BiGoTo.html" xlink:type="simple"><rect fill="#F1F1F1" height="69.7558" rx="2.5" ry="2.5" style="stroke:#181818;stroke-width:0.5;" width="329.5328" x="6" y="91"/><ellipse cx="58.6516" cy="112.344" fill="#ADD1B2" rx="11" ry="11" style="stroke:#181818;stroke-width:1;"/><path d="M56.5578,112.1877 Q56.5578,114.0627 57.1359,115.0783 Q57.7141,116.0783 58.8703,116.0783 Q60.2141,116.0783 60.8703,114.0627 L63.1359,114.4846 Q62.0266,118.0158 58.8547,118.0158 Q56.5109,118.0158 55.2922,116.5315 Q54.0734,115.0471 54.0734,112.1877 Q54.0734,106.469 58.7766,106.469 Q60.3234,106.469 61.3547,107.2815 Q62.4016,108.094 62.9016,109.7033 L60.6359,110.2502 Q60.4016,109.3752 59.9172,108.8908 Q59.4328,108.3908 58.8078,108.3908 Q56.5578,108.3908 56.5578,112.1877 Z " fill="#000000"/><text fill="#000000" font-family="sans-serif" font-size="14" lengthAdjust="spacing" textLength="169.6933" x="79.1516" y="110.9659">BiOutputMapping.BiGoTo</text><text fill="#000000" font-family="sans-serif" font-size="10" lengthAdjust="spacing" textLength="94.6599" x="116.6683" y="125.7579">org.quurz.automata</text><rect fill="#FFFFFF" height="18.3441" style="stroke:#181818;stroke-width:1;stroke-dasharray:2,2;" width="44.0363" x="294.4965" y="88"/><text fill="#000000" font-family="sans-serif" font-size="12" font-style="italic" lengthAdjust="spacing" textLength="42.0363" x="295.4965" y="101.8281">I1, I2, O</text><line style="stroke:#181818;stroke-width:0.5;" x1="7" x2="334.5328" y1="133.6879" y2="133.6879"/><ellipse cx="17" cy="148.7219" fill="#84BE84" rx="3" ry="3" style="stroke:#038048;stroke-width:1;"/><text fill="#000000" font-family="sans-serif" font-size="14" lengthAdjust="spacing" textLength="303.5328" x="26" y="152.6538">goTo(NonNull O): BiOutputMapping&lt;I1, I2, O&gt;</text></a></g><!--class org.quurz.automata.BiOutputMapping--><g class="entity" data-entity="org.quurz.automata.BiOutputMapping" data-source-line="17" data-uid="ent0003" id="entity_org.quurz.automata.BiOutputMapping"><a href="BiOutputMapping.html" target="_top" title="BiOutputMapping.html" xlink:actuate="onRequest" xlink:href="BiOutputMapping.html" xlink:show="new" xlink:title="BiOutputMapping.html" xlink:type="simple"><rect fill="#F1F1F1" height="42.6879" rx="2.5" ry="2.5" style="stroke:#181818;stroke-width:0.5;" width="196.3499" x="73" y="12"/><ellipse cx="88" cy="33.344" fill="#ADD1B2" rx="11" ry="11" style="stroke:#181818;stroke-width:1;"/><path d="M85.9063,33.1877 Q85.9063,35.0627 86.4844,36.0783 Q87.0625,37.0783 88.2188,37.0783 Q89.5625,37.0783 90.2188,35.0627 L92.4844,35.4846 Q91.375,39.0158 88.2031,39.0158 Q85.8594,39.0158 84.6406,37.5315 Q83.4219,36.0471 83.4219,33.1877 Q83.4219,27.469 88.125,27.469 Q89.6719,27.469 90.7031,28.2815 Q91.75,29.094 92.25,30.7033 L89.9844,31.2502 Q89.75,30.3752 89.2656,29.8908 Q88.7813,29.3908 88.1563,29.3908 Q85.9063,29.3908 85.9063,33.1877 Z " fill="#000000"/><text fill="#000000" font-family="sans-serif" font-size="14" lengthAdjust="spacing" textLength="118.3136" x="102" y="31.9659">BiOutputMapping</text><text fill="#000000" font-family="sans-serif" font-size="10" lengthAdjust="spacing" textLength="94.6599" x="113.8268" y="46.7579">org.quurz.automata</text><rect fill="#FFFFFF" height="18.3441" style="stroke:#181818;stroke-width:1;stroke-dasharray:2,2;" width="44.0363" x="228.3136" y="9"/><text fill="#000000" font-family="sans-serif" font-size="12" font-style="italic" lengthAdjust="spacing" textLength="42.0363" x="229.3136" y="22.8281">I1, I2, O</text></a></g><g class="link" data-entity-1="org.quurz.automata.BiOutputMapping" data-entity-2="org.quurz.automata.BiOutputMapping.BiGoTo" data-uid="lnk4" id="link_org.quurz.automata.BiOutputMapping_org.quurz.automata.BiOutputMapping.BiGoTo"><ellipse cx="171" cy="63.0359" fill="#FFFFFF" rx="8" ry="8" style="stroke:#181818;stroke-width:1;"/><line style="stroke:#181818;stroke-width:1;" x1="171" x2="171" y1="71.0359" y2="55.0359"/><line style="stroke:#181818;stroke-width:1;" x1="163" x2="179" y1="63.0359" y2="63.0359"/><path d="M171,71.0359 C171,81.5703 171,78.6827 171,90.6991" fill="none" style="stroke:#181818;stroke-width:1;"/></g><g class="footer" data-source-line="27"><text fill="#888888" font-family="sans-serif" font-size="10" lengthAdjust="spacing" textLength="2.6" x="166.2" y="165.69">&#160;</text><a href="https://github.com/talsma-ict/umldoclet" target="_top" title="https://github.com/talsma-ict/umldoclet" xlink:actuate="onRequest" xlink:href="https://github.com/talsma-ict/umldoclet" xlink:show="new" xlink:title="https://github.com/talsma-ict/umldoclet" xlink:type="simple"><text fill="#888888" font-family="sans-serif" font-size="10" lengthAdjust="spacing" textLength="76.7199" x="129.14" y="179.31">UMLDoclet 2.2.4</text></a></g><!--SRC=[hLDDJzj04BtpAwRqK139nZQVZL0aI2kW2b2LS0eS1dkmLwntp7vGXOh_thMTXZIDMWxTY-NvUFFUx3u0W0ymv6fgP5uuS0oka1QkpqU0EeESD1bqb84iCISBTwHOvxOj943l2ZR0zyrVoiQGhLXdKkVm1PyGB7kJaXLhQz2C6lz2_uvs0VrkMWS_SQh8mSPmSu5I4iLxtIHAzc2CofO8PyEncA6zzYGY4JiGi9LCITi0wNL6fg5rL64QFgCsqu4dCbQo3ZtH3AUMch9sABM52espjQIl2hMhkSOYpDyLSGGRHrUZtyb57njo7JWo6dq6t_ZHp_M-gmpcWRB2ANi7jYI76jkS3Qmrbc5VcD8LXQdemYerQshoXSm8gApS5EubgSmkHmDOmI7Sn5E5riBwePNFr8zt1iVoqhlAktEigd0PubYUy9XlzAmW6h39nQFtvbc4E-GI7Qv3k98_ms8rrE5Pt86pf0EN0vXCLjU8mfNgzXP-D1JhivM7yCO5wmkl55nkzc6fSm6sQNfvaxp_eUllWbebBPb_Oy5Mj_lsLRQeXzPD5GtcgxfdTk41l-wkFgVJYin8weSXg_1OtX-ipbxNRrz9JS5kwOEciBjeNldIZkijp9lDkj6JIU5SPVkzNYvTuUz4ocNFDRxhojJrVAcord1BrWkxQQrqClTqROjkOuznVD2FatwyBVQsTm-sz-FzU2jA-b4q-UmDLzGxRjZU_WG0]--></g></svg>