<svg xmlns="http://www.w3.org/2000/svg" xmlns:xlink="http://www.w3.org/1999/xlink" contentStyleType="text/css" data-diagram-type="CLASS" height="190px" preserveAspectRatio="none" style="width:305px;height:190px;background:#FFFFFF;" version="1.1" viewBox="0 0 305 190" width="305px" zoomAndPan="magnify"><defs/><g><!--class org.quurz.automata.OutputMapping.GoTo--><g class="entity" data-entity="org.quurz.automata.OutputMapping.GoTo" data-source-line="13" data-uid="ent0002" id="entity_org.quurz.automata.OutputMapping.GoTo"><a href="OutputMapping.GoTo.html" target="_top" title="OutputMapping.GoTo.html" xlink:actuate="onRequest" xlink:href="OutputMapping.GoTo.html" xlink:show="new" xlink:title="OutputMapping.GoTo.html" xlink:type="simple"><rect fill="#F1F1F1" height="69.7558" rx="2.5" ry="2.5" style="stroke:#181818;stroke-width:0.5;" width="288.667" x="6" y="91"/><ellipse cx="62.5827" cy="112.344" fill="#ADD1B2" rx="11" ry="11" style="stroke:#181818;stroke-width:1;"/><path d="M60.489,112.1877 Q60.489,114.0627 61.0671,115.0783 Q61.6452,116.0783 62.8015,116.0783 Q64.1452,116.0783 64.8015,114.0627 L67.0671,114.4846 Q65.9577,118.0158 62.7858,118.0158 Q60.4421,118.0158 59.2233,116.5315 Q58.0046,115.0471 58.0046,112.1877 Q58.0046,106.469 62.7077,106.469 Q64.2546,106.469 65.2858,107.2815 Q66.3327,108.094 66.8327,109.7033 L64.5671,110.2502 Q64.3327,109.3752 63.8483,108.8908 Q63.364,108.3908 62.739,108.3908 Q60.489,108.3908 60.489,112.1877 Z " fill="#000000"/><text fill="#000000" font-family="sans-serif" font-size="14" lengthAdjust="spacing" textLength="144.2695" x="83.0827" y="110.9659">OutputMapping.GoTo</text><text fill="#000000" font-family="sans-serif" font-size="10" lengthAdjust="spacing" textLength="94.6599" x="107.8875" y="125.7579">org.quurz.automata</text><rect fill="#FFFFFF" height="18.3441" style="stroke:#181818;stroke-width:1;stroke-dasharray:2,2;" width="20.7321" x="276.9349" y="88"/><text fill="#000000" font-family="sans-serif" font-size="12" font-style="italic" lengthAdjust="spacing" textLength="18.7321" x="277.9349" y="101.8281">I, O</text><line style="stroke:#181818;stroke-width:0.5;" x1="7" x2="293.667" y1="133.6879" y2="133.6879"/><ellipse cx="17" cy="148.7219" fill="#84BE84" rx="3" ry="3" style="stroke:#038048;stroke-width:1;"/><text fill="#000000" font-family="sans-serif" font-size="14" lengthAdjust="spacing" textLength="262.667" x="26" y="152.6538">goTo(NonNull O): OutputMapping&lt;I, O&gt;</text></a></g><!--class org.quurz.automata.OutputMapping--><g class="entity" data-entity="org.quurz.automata.OutputMapping" data-source-line="17" data-uid="ent0003" id="entity_org.quurz.automata.OutputMapping"><a href="OutputMapping.html" target="_top" title="OutputMapping.html" xlink:actuate="onRequest" xlink:href="OutputMapping.html" xlink:show="new" xlink:title="OutputMapping.html" xlink:type="simple"><rect fill="#F1F1F1" height="42.6879" rx="2.5" ry="2.5" style="stroke:#181818;stroke-width:0.5;" width="160.3337" x="70.5" y="12"/><ellipse cx="85.5" cy="33.344" fill="#ADD1B2" rx="11" ry="11" style="stroke:#181818;stroke-width:1;"/><path d="M83.4063,33.1877 Q83.4063,35.0627 83.9844,36.0783 Q84.5625,37.0783 85.7188,37.0783 Q87.0625,37.0783 87.7188,35.0627 L89.9844,35.4846 Q88.875,39.0158 85.7031,39.0158 Q83.3594,39.0158 82.1406,37.5315 Q80.9219,36.0471 80.9219,33.1877 Q80.9219,27.469 85.625,27.469 Q87.1719,27.469 88.2031,28.2815 Q89.25,29.094 89.75,30.7033 L87.4844,31.2502 Q87.25,30.3752 86.7656,29.8908 Q86.2813,29.3908 85.6563,29.3908 Q83.4063,29.3908 83.4063,33.1877 Z " fill="#000000"/><text fill="#000000" font-family="sans-serif" font-size="14" lengthAdjust="spacing" textLength="105.6016" x="99.5" y="31.9659">OutputMapping</text><text fill="#000000" font-family="sans-serif" font-size="10" lengthAdjust="spacing" textLength="94.6599" x="104.9709" y="46.7579">org.quurz.automata</text><rect fill="#FFFFFF" height="18.3441" style="stroke:#181818;stroke-width:1;stroke-dasharray:2,2;" width="20.7321" x="213.1016" y="9"/><text fill="#000000" font-family="sans-serif" font-size="12" font-style="italic" lengthAdjust="spacing" textLength="18.7321" x="214.1016" y="22.8281">I, O</text></a></g><g class="link" data-entity-1="org.quurz.automata.OutputMapping" data-entity-2="org.quurz.automata.OutputMapping.GoTo" data-uid="lnk4" id="link_org.quurz.automata.OutputMapping_org.quurz.automata.OutputMapping.GoTo"><ellipse cx="150.5" cy="63.0359" fill="#FFFFFF" rx="8" ry="8" style="stroke:#181818;stroke-width:1;"/><line style="stroke:#181818;stroke-width:1;" x1="150.5" x2="150.5" y1="71.0359" y2="55.0359"/><line style="stroke:#181818;stroke-width:1;" x1="142.5" x2="158.5" y1="63.0359" y2="63.0359"/><path d="M150.5,71.0359 C150.5,81.5703 150.5,78.6827 150.5,90.6991" fill="none" style="stroke:#181818;stroke-width:1;"/></g><g class="footer" data-source-line="27"><text fill="#888888" font-family="sans-serif" font-size="10" lengthAdjust="spacing" textLength="2.6" x="145.7" y="165.69">&#160;</text><a href="https://github.com/talsma-ict/umldoclet" target="_top" title="https://github.com/talsma-ict/umldoclet" xlink:actuate="onRequest" xlink:href="https://github.com/talsma-ict/umldoclet" xlink:show="new" xlink:title="https://github.com/talsma-ict/umldoclet" xlink:type="simple"><text fill="#888888" font-family="sans-serif" font-size="10" lengthAdjust="spacing" textLength="76.7199" x="108.64" y="179.31">UMLDoclet 2.2.4</text></a></g><!--SRC=[fLFRJjj047tdAwRqeK6GZUscD8rGf3IjA5M0geIda8U9FTWhrZjcBrIXuj-xjjDmQrMaxelbkPmvSsO60E0DJBXQ6PaN3Xo3AwI5y-CfeCuW9qq67MKWIyp9mf8KwzosWGJeNS46-BBvIzaOiXNhJEeSlk8DWcLlKh9YQmkQKhFVw3_GFa1VhchZ9quLEUXCTXvGIg9ulvj4oJxCKDaIuMWo4skq-vn49A8F0Ll9bBGDa5vdP1fQumhJy9csdZsu8MCbwv0JhN7gLbFM3gMsKA5njcxfcqBjQgwn2FNVYJY2plXi-fXSzA4XjmTZez5dy9sl_QRVLvN1F51Mk6Blm9RaK6Fhiu6rnZBeXIcTKQYABaYfMLFZBsH6G6NbLd0fIMNsgJM05HpCZJrLQ2ri7rXvIyEuFphrhlBk6AigZ48SyemlzDePZTZaujfxSol2_BX4XziGnl7SB9x371pjmUa8vlFdBb6uKYqMyBDXLB_TF9Wx9wnFl59mkZE4HrajLXDzzu8s_h-3lv1lURSC_WK1kztkovHgyGwiMoaQRIIvP7PXB-yrgj-NLKLcAlNLX5NOWTU3FtlFwvLMKbEuelHAKv0gsaJUjULw3-gjQrte-RnmhhB3NY-Nhl1BaNBPSyqvTMNgUhvKMNj7JouggD9UoE7cLEjjxpPRFui7mpWPnc_5-_v-Vp0O9Cbkb0oZQFxP6wwezx5Xk_W5]--></g></svg>